<?xml version="1.0" encoding="utf-8"?>
<!-- Generator: Adobe Illustrator 23.0.1, SVG Export Plug-In . SVG Version: 6.00 Build 0)  -->
<svg version="1.1" id="Layer_1" xmlns="http://www.w3.org/2000/svg" xmlns:xlink="http://www.w3.org/1999/xlink" x="0px" y="0px"
	 viewBox="0 0 250 250" style="enable-background:new 0 0 250 250;" xml:space="preserve">
<style type="text/css">
	.st0{fill:#E70F17;}
	.st1{fill:#83633D;}
	.st2{fill:#4CA9EA;}
	.st3{fill:#4DA9EA;}
	.st4{fill:#83643E;}
	.st5{fill:#84643F;}
	.st6{fill:#84643E;}
	.st7{fill:#4EA9EA;}
	.st8{fill:#4EAAEA;}
	.st9{fill:#4FAAEA;}
	.st10{fill:#50AAEB;}
	.st11{fill:#50ABEB;}
	.st12{fill:#EA3137;}
	.st13{fill:#EA2B32;}
	.st14{fill:#EA2A32;}
	.st15{fill:#EA2F36;}
	.st16{fill:#EA2930;}
	.st17{fill:#EA3037;}
	.st18{fill:#EA3138;}
	.st19{fill:#EA2E35;}
	.st20{fill:#EB373E;}
	.st21{fill:#EA2D34;}
	.st22{fill:#EA2A31;}
	.st23{fill:#EC4046;}
	.st24{fill:#EB373D;}
	.st25{fill:#F9FBFD;}
	.st26{fill:#F7FBFD;}
	.st27{fill:#FEBD33;}
	.st28{fill:#EFF7FC;}
</style>
<path class="st0" d="M84.78,102.03c4.85-6.51,9.74-10.64,15.66-14.28c32.64-20.03,71.32,3.45,72.89,38.31c-31.67,0-63.33,0-95.26,0
	c-0.75-9.02,3.1-16.78,6.78-24.21C84.84,101.85,84.78,102.03,84.78,102.03z"/>
<path class="st1" d="M114.38,188.9c-28.21-6.6-51.08,3.94-72.89,20.2c-26.9-25.83-38.1-57.49-35.61-95.09
	c6.98,1.65,9.09,6.38,10.46,12.07c2.26,9.36,3.91,19.02,7.49,27.89c8.6,21.3,31.8,31.09,53.58,23.7c9.74-3.3,16.49-10,21.36-18.62
	c3.4-6.04,6.01-12.53,8.88-18.86c1.59-3.51,4.37-6.06,7.83-4.22c2.14,1.14,4.28,4.98,4.07,7.4
	C118.19,158.57,116.18,173.71,114.38,188.9z"/>
<path class="st1" d="M242.33,114.14c4.87,37.67-7.55,68.65-34,94.91c-21.53-15.84-44.5-26.9-73.21-20.16
	c-0.74-6.66-1.49-13.69-2.3-20.71c-0.91-7.82-1.92-15.62-2.79-23.44c-0.44-4-0.23-8.07,4.65-9.13c4.39-0.95,6.21,2.22,7.9,5.73
	c3.69,7.66,6.86,15.79,11.78,22.61c16.73,23.19,54.62,21.06,68.33-4.12c4.83-8.87,6.92-19.32,9.67-29.22
	C234.15,124.17,234.53,117.22,242.33,114.14z"/>
<path class="st2" d="M141.88,197.54c0,2.91,0,5.99,0,9.8c-7.08-3.29-13.89-6.59-21.24-3.05c-1.22,0.59-1.46,3.19-2.53,5.78
	c5.2,1.49,9.45,2.67,13.66,3.93c8.64,2.58,12.58,6.89,12.56,13.68c-0.02,7.3-4.72,12.66-13.11,14.97
	c-8.65,2.38-16.84,0.8-25.21-2.72c0-3.58,0-7.03,0-11.28c8.63,4.66,16.92,9.38,27.87,1.71c-3.33-2.37-5.27-4.33-7.62-5.27
	c-3.3-1.33-6.98-1.69-10.36-2.86c-5.49-1.9-9.14-5.38-9.55-11.69c-0.41-6.35,2.27-10.62,7.53-13.94
	C119.99,192.72,134.97,192.72,141.88,197.54z"/>
<path class="st3" d="M93.67,188.37c-1.14,17.73-1.65,34.44,4.71,51.96c-4.95-0.92-8.92-1.66-12.81-2.38
	c-0.51-3.78-0.9-6.64-1.33-9.79c-6.25-3.31-12.55-6.65-18.92-10.02c-2.76,1.41-5.52,2.82-8.78,4.48c-2.84-2.5-5.59-4.91-9.61-8.45
	C65.71,209.5,79.2,198.46,93.67,188.37z"/>
<path class="st3" d="M165.19,228.14c-0.29,2.8-0.6,5.67-1,9.45c-3.87,0.89-7.83,1.81-13.06,3.01c5.7-17.57,6.24-34.11,3.13-52.21
	c2.76,0.87,4.02,1.62,5.88,2.77c12.57,9.65,25.39,18.2,41.73,23.09c-3.3,3.13-5.94,5.64-8.86,8.41c-3.12-1.57-5.89-2.96-8.93-4.49
	C177.95,221.42,171.65,224.74,165.19,228.14z"/>
<path class="st4" d="M192.14,174.84c-3.83,0-6.94,0-11.85,0c13.42-13.02,17.6-29.64,24.98-44.58c1.88-3.81,4.05-7.49,9.81-8.36
	C212.24,141.99,206.49,160.11,192.14,174.84z"/>
<path class="st4" d="M66.56,174.86c-0.51,0.04-2.07,0.2-3.62,0.26c-1.56,0.06-3.12,0.01-5.05,0.01
	c-14.74-14.52-20.2-32.99-23.39-52.47c0.55-0.47,1.09-0.93,1.64-1.4c2.47,2.46,5.53,4.58,7.29,7.47c2.65,4.36,4.24,9.36,6.56,13.94
	C55.38,153.37,60.94,163.98,66.56,174.86z"/>
<path class="st3" d="M197.23,45.45c2.79-3.23,4.79-5.56,7.23-8.37c2.02,1.46,3.91,2.82,6.22,4.5C205.4,47.9,200.43,53.86,195.31,60
	c-2.17-1.63-3.93-2.97-5.85-4.41c-0.33-4.67-0.65-9.28-1.07-15.34c-2.99,3.13-5.05,5.28-7.57,7.92c-1.87-1.43-3.71-2.83-6.02-4.58
	c5.3-6.24,10.19-11.99,15.44-18.17c2.11,1.58,3.83,2.87,5.35,4.01C196.13,34.66,196.62,39.48,197.23,45.45z"/>
<path class="st5" d="M48.23,173.81C25,162.39,24.76,139.48,19.98,117.96c7.01,1.11,10.1,5.48,11.93,10.82
	c1.44,4.22,1.72,8.86,3.3,13.02C39.25,152.4,43.74,162.85,48.23,173.81z"/>
<path class="st6" d="M200.93,173.16c7.67-12.64,13.08-26.03,15.75-40.6c1.25-6.85,4.39-12.72,12.99-14.96
	C224.98,139.21,224.81,162.18,200.93,173.16z"/>
<path class="st3" d="M22.4,63.46c2.74,1.63,4.81,2.86,7.46,4.43c1.69-2.46,3.27-4.77,4.96-7.22c-2.34-1.86-4.4-3.5-6.82-5.43
	c1.47-2.17,2.79-4.13,4.46-6.61c6.86,4.47,13.34,8.68,20.1,13.09c-1.66,2.42-3.02,4.4-4.56,6.63c-2.56-1.42-4.85-2.69-7.76-4.3
	c-1.61,2.37-3.18,4.68-4.9,7.22c2.41,1.81,4.5,3.39,7.02,5.28c-1.35,2.2-2.59,4.21-4.25,6.92c-6.77-4.39-13.26-8.59-20.17-13.07
	C19.42,68.1,20.7,66.12,22.4,63.46z"/>
<path class="st6" d="M199.47,126.11c-1.92,17.3-11.55,36.15-23.91,46.51c-2.73-0.9-6.01-1.99-10.82-3.58
	c13.28-7.32,17.06-19.9,23.05-30.97C190.41,133.24,192.52,127.78,199.47,126.11z"/>
<path class="st4" d="M83.31,169.66c-3.3,1.05-6.61,2.1-9.8,3.12c-13.45-13.07-20.34-28.45-23.56-45.67
	c0.44-0.44,0.89-0.88,1.33-1.32c2.44,2.2,5.43,4.03,7.19,6.67c2.97,4.46,5.26,9.38,7.66,14.2c4.21,8.47,8.46,16.87,17.48,21.56
	C83.51,168.69,83.41,169.17,83.31,169.66z"/>
<path class="st7" d="M224.24,100.34c0-3.03-0.73-6.31,0.2-9.01c0.97-2.8,3.14-6.32,5.56-7.11c2-0.65,5.95,1.59,7.63,3.68
	c4.92,6.09,3.86,14.39-2.64,18.49c-0.36-5.01-0.68-9.42-1-13.83c-0.75,0.04-1.5,0.07-2.24,0.11c0,1.96-0.09,3.92,0.02,5.87
	c0.27,4.69,0.13,9.22-5.39,10.92c-4.21,1.3-8.03-1.6-10.31-7.52c-3.06-7.95-1.81-12.66,5.43-16.3c0,5.37,0,10.11,0,14.85
	C222.41,100.44,223.32,100.39,224.24,100.34z"/>
<path class="st7" d="M219.49,52.2c4.12,6.35,8,12.31,12.16,18.71c-1.71,1.16-3.05,2.08-4.6,3.14c-2.99-4.04-5.7-7.7-8.4-11.36
	c-0.65,0.43-1.29,0.87-1.94,1.3c1.86,3.31,3.72,6.63,5.81,10.34c-1.41,0.89-2.81,1.78-4.39,2.77c-2.4-3.46-4.54-6.56-6.68-9.65
	l-2.68,2.07l6.66,11.61c-0.96,0.77-2.24,1.81-4.18,3.37c-4.03-6.36-7.82-12.34-12.31-19.43C205.77,60.8,212.44,56.62,219.49,52.2z"
	/>
<path class="st8" d="M25.29,99.73c2.41,0.95,4.45,1.75,6.88,2.71c-0.69,2.52-1.31,4.79-2.09,7.67c-7.95-2.04-15.46-3.96-23.66-6.06
	c1.51-5.36,2.6-10.36,4.35-15.12c1.59-4.32,5.08-6.34,9.68-4.95c4.67,1.41,7.15,4.5,6.01,9.69C26.04,95.6,25.71,97.56,25.29,99.73z"
	/>
<path class="st9" d="M114.25,30.53c-2.52,0.38-4.84,0.72-8.1,1.21c-0.76-8.17-1.47-15.76-2.22-23.76c5.18-0.64,9.76-1.38,14.36-1.72
	c5.05-0.37,9.06,2.95,9.49,7.44c0.44,4.62-2.63,7.9-8.16,8.72c-1.72,0.26-3.45,0.51-5.37,0.8
	C114.25,25.53,114.25,27.47,114.25,30.53z"/>
<path class="st7" d="M141.86,31.71c-2.81-0.66-4.95-1.17-7.81-1.84c1.68-7.51,3.31-14.8,5.18-23.21c5.82,1.34,11.51,1.82,16.34,4.11
	c2.34,1.11,4.35,5.68,4.22,8.57c-0.22,4.47-4,6.78-8.65,6.52c-2.18-0.12-4.34-0.76-6.78-1.22
	C143.51,27.06,142.79,29.09,141.86,31.71z"/>
<path class="st9" d="M87.82,36.82c-6.78,3.83-12.57,7.11-19.1,10.8c-4.04-6.86-7.83-13.3-12-20.39c2.27-1.43,4.38-2.77,7.05-4.46
	c3.11,5.18,5.93,9.88,9.09,15.15c3.88-2.05,7.37-3.9,11.4-6.02C85.28,33.3,86.36,34.79,87.82,36.82z"/>
<path class="st10" d="M63.97,52.02c-2.36,2.05-4.03,3.5-6.34,5.5C52.22,51.67,47,46.01,41.23,39.76c1.99-1.99,3.68-3.68,5.94-5.93
	C52.96,40.1,58.21,45.79,63.97,52.02z"/>
<path class="st11" d="M100.06,33.24c-2.96,0.99-5.05,1.69-7.94,2.66c-2.46-7.47-4.86-14.75-7.43-22.54
	c2.71-0.98,4.95-1.79,7.94-2.88C95.1,18.03,97.47,25.3,100.06,33.24z"/>
<path class="st9" d="M161.4,37.41c3.42-7.27,6.64-14.09,10.1-21.42c2.52,1.09,4.67,2.03,7.69,3.34c-3.49,7.4-6.77,14.36-10.25,21.74
	C166.2,39.74,164.08,38.71,161.4,37.41z"/>
<path class="st12" d="M206.72,100.19c-11.58,4.18-23.15,8.35-34.73,12.53c-0.31-0.85-0.61-1.7-0.92-2.54
	c11.59-4.15,23.17-8.3,34.76-12.45C206.12,98.54,206.42,99.37,206.72,100.19z"/>
<path class="st13" d="M147.5,44.55c-3.05,11.91-6.11,23.81-9.16,35.72c-0.83-0.21-1.65-0.42-2.48-0.63
	c3.01-11.85,6.03-23.71,9.04-35.56C145.77,44.23,146.64,44.39,147.5,44.55z"/>
<path class="st14" d="M110.78,80.26c-3.05-11.88-6.1-23.77-9.16-35.65c0.81-0.21,1.61-0.43,2.42-0.64
	c3.12,11.88,6.23,23.76,9.35,35.64C112.52,79.83,111.65,80.05,110.78,80.26z"/>
<path class="st15" d="M43.64,97.81c10.44,3.76,35.03,13.54,35.03,13.54l-0.38,1.22c-0.15,0.15-27.8-10.19-35.25-13.45
	C43.24,98.68,43.44,98.24,43.64,97.81z"/>
<path class="st16" d="M89.96,92.48c-8.31-9.07-16.61-18.14-24.92-27.21c0.63-0.58,1.25-1.16,1.88-1.74
	c8.32,9.04,16.64,18.09,24.97,27.13C91.24,91.27,90.6,91.87,89.96,92.48z"/>
<path class="st17" d="M165.66,99.96c6.28-4.07,12.56-8.15,18.85-12.22c0.49,0.74,0.98,1.49,1.48,2.23
	c-6.29,4.09-12.57,8.18-18.86,12.28C166.64,101.48,166.15,100.72,165.66,99.96z"/>
<path class="st18" d="M53.02,118.64c7.48,0.89,14.97,1.77,22.45,2.66c-0.09,0.81-0.18,1.62-0.27,2.43
	c-7.52-0.79-15.04-1.58-22.56-2.37C52.77,120.46,52.9,119.55,53.02,118.64z"/>
<path class="st19" d="M99.31,85.12c-3.56-6.58-7.12-13.16-10.69-19.74c0.74-0.42,1.48-0.84,2.23-1.26
	c3.63,6.56,7.26,13.12,10.89,19.67C100.93,84.24,100.12,84.68,99.31,85.12z"/>
<path class="st20" d="M174.09,121.19c7.41-0.85,14.81-1.71,22.22-2.56c0.12,0.84,0.24,1.67,0.36,2.51
	c-7.41,0.95-14.83,1.9-22.24,2.84C174.31,123.05,174.2,122.12,174.09,121.19z"/>
<path class="st21" d="M83.74,101.22c-7.01-3.83-14.02-7.65-21.03-11.48c0.48-0.78,0.96-1.56,1.44-2.33
	c6.75,4.24,14.03,7.22,20.46,12.56L83.74,101.22z"/>
<path class="st17" d="M160.64,65.36c-3.63,6.55-7.27,13.09-10.9,19.64c-0.75-0.4-1.5-0.8-2.25-1.21c3.59-6.57,7.19-13.13,10.78-19.7
	C159.06,64.51,159.85,64.93,160.64,65.36z"/>
<path class="st22" d="M163.41,84.34c4.94-5.4,9.88-10.79,14.81-16.19c1.34-0.29,1.92,0.15,1.5,1.56
	c-4.93,5.37-9.87,10.74-14.8,16.12C163.54,86.23,163.11,85.65,163.41,84.34z"/>
<path class="st0" d="M123.25,77.92c0-7.22,0-14.43,0-21.65c0.88,0,1.76,0.01,2.63,0.01c0,7.25,0,14.5,0,21.75
	C125,77.99,124.12,77.95,123.25,77.92z"/>
<path class="st23" d="M163.41,84.34c0.51,0.49,1.01,0.99,1.52,1.48c-1.93,2.2-3.86,4.41-5.79,6.61c-0.59-0.51-1.18-1.03-1.77-1.54
	C159.38,88.71,161.4,86.52,163.41,84.34z"/>
<path class="st24" d="M179.73,69.7c-0.5-0.52-1-1.04-1.5-1.56c1.47-1.53,2.93-3.06,4.4-4.59c0.5,0.47,1,0.94,1.5,1.42
	C182.66,66.55,181.2,68.12,179.73,69.7z"/>
<path class="st25" d="M84.33,218.5c-3.94-2.01-7.23-3.68-9.9-5.05c4.19-4.74,8.21-9.3,13.43-15.2
	C86.55,205.76,85.53,211.61,84.33,218.5z"/>
<path class="st26" d="M161.21,198.19c4.66,5.17,9,9.97,13.67,15.14c-2.35,1.3-5.57,3.07-9.51,5.25
	C163.92,211.51,162.62,205.11,161.21,198.19z"/>
<polygon class="st27" points="61.27,83.33 56.82,86.11 56.59,91.36 52.57,87.98 47.51,89.38 49.47,84.52 46.58,80.14 51.81,80.5 
	55.08,76.39 56.35,81.49 "/>
<polygon class="st27" points="131.75,41.08 127.93,44.67 128.72,49.86 124.12,47.34 119.43,49.7 120.41,44.54 116.72,40.81 
	121.93,40.15 124.33,35.48 126.57,40.23 "/>
<polygon class="st27" points="200.54,87.81 195.37,86.91 191.7,90.66 190.96,85.46 186.26,83.12 190.97,80.81 191.74,75.62 
	195.39,79.39 200.57,78.52 198.11,83.16 "/>
<path class="st28" d="M147.5,11.59l-2.15,7.6c0,0,7.41,2.34,8.71-1.07S152.24,13.47,147.5,11.59z"/>
<path class="st28" d="M113.35,10.72l0.73,7.86c0,0,7.76-0.48,7.74-4.13S118.45,10.77,113.35,10.72z"/>
<path class="st28" d="M13.38,96.04l7.71,1.7c0,0,1.91-7.54-1.57-8.63C16.03,88.02,14.98,91.2,13.38,96.04z"/>
</svg>
